<?xml version="1.0" encoding="UTF-8" standalone="no"?>
<!DOCTYPE svg PUBLIC "-//W3C//DTD SVG 1.1//EN" "http://www.w3.org/Graphics/SVG/1.1/DTD/svg11.dtd">
<!-- Generated by graphviz version 2.40.1 (20161225.0304)
 -->
<!-- Title: UmlClassDiagram Pages: 1 -->
<svg width="988pt" height="777pt" viewBox="0.00 0.00 987.62 776.60" xmlns="http://www.w3.org/2000/svg" xmlns:xlink="http://www.w3.org/1999/xlink">
<g id="graph0" class="graph" transform="scale(1 1) rotate(0) translate(4 772.6)">
<title>UmlClassDiagram</title>
<polygon fill="#ffffff" stroke="transparent" points="-4,4 -4,-772.6 983.6243,-772.6 983.6243,4 -4,4"/>
<!-- 0 -->
<g id="node1" class="node">
<title>0</title>
<polygon fill="#f2f2f2" stroke="#000000" points="211.243,-576.1 211.243,-734.5 397.8918,-734.5 397.8918,-576.1 211.243,-576.1"/>
<text text-anchor="middle" x="304.5674" y="-717.9" font-family="Times,serif" font-size="14.00" fill="#000000">Ownable</text>
<polyline fill="none" stroke="#000000" points="211.243,-709.7 397.8918,-709.7 "/>
<text text-anchor="start" x="219.243" y="-693.1" font-family="Times,serif" font-size="14.00" fill="#000000">Private:</text>
<text text-anchor="start" x="219.243" y="-676.3" font-family="Times,serif" font-size="14.00" fill="#000000">   _owner: address</text>
<polyline fill="none" stroke="#000000" points="211.243,-668.1 397.8918,-668.1 "/>
<text text-anchor="start" x="219.243" y="-651.5" font-family="Times,serif" font-size="14.00" fill="#000000">Public:</text>
<text text-anchor="start" x="219.243" y="-634.7" font-family="Times,serif" font-size="14.00" fill="#000000">    &lt;&lt;modifier&gt;&gt; onlyOwner()</text>
<text text-anchor="start" x="219.243" y="-617.9" font-family="Times,serif" font-size="14.00" fill="#000000">    constructor(owner: address)</text>
<text text-anchor="start" x="219.243" y="-601.1" font-family="Times,serif" font-size="14.00" fill="#000000">    owner(): address</text>
<text text-anchor="start" x="219.243" y="-584.3" font-family="Times,serif" font-size="14.00" fill="#000000">    isOwner(): bool</text>
</g>
<!-- 1 -->
<g id="node2" class="node">
<title>1</title>
<polygon fill="#f2f2f2" stroke="#000000" points="97.7655,-279.9 97.7655,-505.5 351.3693,-505.5 351.3693,-279.9 97.7655,-279.9"/>
<text text-anchor="middle" x="224.5674" y="-488.9" font-family="Times,serif" font-size="14.00" fill="#000000">Pausable</text>
<polyline fill="none" stroke="#000000" points="97.7655,-480.7 351.3693,-480.7 "/>
<text text-anchor="start" x="105.7655" y="-464.1" font-family="Times,serif" font-size="14.00" fill="#000000">Private:</text>
<text text-anchor="start" x="105.7655" y="-447.3" font-family="Times,serif" font-size="14.00" fill="#000000">   _paused: bool</text>
<polyline fill="none" stroke="#000000" points="97.7655,-439.1 351.3693,-439.1 "/>
<text text-anchor="start" x="105.7655" y="-422.5" font-family="Times,serif" font-size="14.00" fill="#000000">Public:</text>
<text text-anchor="start" x="105.7655" y="-405.7" font-family="Times,serif" font-size="14.00" fill="#000000">    &lt;&lt;event&gt;&gt; Paused(account: address)</text>
<text text-anchor="start" x="105.7655" y="-388.9" font-family="Times,serif" font-size="14.00" fill="#000000">    &lt;&lt;event&gt;&gt; Unpaused(account: address)</text>
<text text-anchor="start" x="105.7655" y="-372.1" font-family="Times,serif" font-size="14.00" fill="#000000">    &lt;&lt;modifier&gt;&gt; whenNotPaused()</text>
<text text-anchor="start" x="105.7655" y="-355.3" font-family="Times,serif" font-size="14.00" fill="#000000">    &lt;&lt;modifier&gt;&gt; whenPaused()</text>
<text text-anchor="start" x="105.7655" y="-338.5" font-family="Times,serif" font-size="14.00" fill="#000000">    constructor()</text>
<text text-anchor="start" x="105.7655" y="-321.7" font-family="Times,serif" font-size="14.00" fill="#000000">    paused(): bool</text>
<text text-anchor="start" x="105.7655" y="-304.9" font-family="Times,serif" font-size="14.00" fill="#000000">    pause()</text>
<text text-anchor="start" x="105.7655" y="-288.1" font-family="Times,serif" font-size="14.00" fill="#000000">    unpause()</text>
</g>
<!-- 1&#45;&gt;0 -->
<g id="edge2" class="edge">
<title>1-&gt;0</title>
<path fill="none" stroke="#000000" d="M258.9589,-505.59C263.1491,-519.3445 267.4231,-533.374 271.5921,-547.0584"/>
<polygon fill="none" stroke="#000000" points="261.5539,-550.1385 280.3409,-575.7764 281.6424,-544.0186 261.5539,-550.1385"/>
</g>
<!-- 2 -->
<g id="node3" class="node">
<title>2</title>
<polygon fill="#f2f2f2" stroke="#000000" points="0,-.5 0,-242.9 449.1348,-242.9 449.1348,-.5 0,-.5"/>
<text text-anchor="middle" x="224.5674" y="-226.3" font-family="Times,serif" font-size="14.00" fill="#000000">PoeFactory</text>
<polyline fill="none" stroke="#000000" points="0,-218.1 449.1348,-218.1 "/>
<text text-anchor="start" x="8" y="-201.5" font-family="Times,serif" font-size="14.00" fill="#000000">Public:</text>
<text text-anchor="start" x="8" y="-184.7" font-family="Times,serif" font-size="14.00" fill="#000000">   userContracts: mapping(address=&gt;address)</text>
<text text-anchor="start" x="8" y="-167.9" font-family="Times,serif" font-size="14.00" fill="#000000">   price: uint256</text>
<polyline fill="none" stroke="#000000" points="0,-159.7 449.1348,-159.7 "/>
<text text-anchor="start" x="8" y="-143.1" font-family="Times,serif" font-size="14.00" fill="#000000">External:</text>
<text text-anchor="start" x="8" y="-126.3" font-family="Times,serif" font-size="14.00" fill="#000000">    &lt;&lt;payable&gt;&gt; createContract()</text>
<text text-anchor="start" x="8" y="-109.5" font-family="Times,serif" font-size="14.00" fill="#000000">Public:</text>
<text text-anchor="start" x="8" y="-92.7" font-family="Times,serif" font-size="14.00" fill="#000000">    &lt;&lt;event&gt;&gt; LogCreateContract(msgSender: address, createdAddr: address)</text>
<text text-anchor="start" x="8" y="-75.9" font-family="Times,serif" font-size="14.00" fill="#000000">    &lt;&lt;event&gt;&gt; LogPriceChanged(price: uint256)</text>
<text text-anchor="start" x="8" y="-59.1" font-family="Times,serif" font-size="14.00" fill="#000000">    &lt;&lt;event&gt;&gt; LogWithdrawal(addr: address, amt: uint256)</text>
<text text-anchor="start" x="8" y="-42.3" font-family="Times,serif" font-size="14.00" fill="#000000">    constructor()</text>
<text text-anchor="start" x="8" y="-25.5" font-family="Times,serif" font-size="14.00" fill="#000000">    setPrice(_price: uint256)</text>
<text text-anchor="start" x="8" y="-8.7" font-family="Times,serif" font-size="14.00" fill="#000000">    withdrawEth()</text>
</g>
<!-- 2&#45;&gt;1 -->
<g id="edge3" class="edge">
<title>2-&gt;1</title>
<path fill="none" stroke="#000000" d="M224.5674,-242.9325C224.5674,-245.1356 224.5674,-247.3438 224.5674,-249.5547"/>
<polygon fill="none" stroke="#000000" points="214.0675,-249.7799 224.5674,-279.7799 235.0675,-249.7799 214.0675,-249.7799"/>
</g>
<!-- 3 -->
<g id="node4" class="node">
<title>3</title>
<polygon fill="#f2f2f2" stroke="#000000" points="369.5105,-296.7 369.5105,-488.7 979.6243,-488.7 979.6243,-296.7 369.5105,-296.7"/>
<text text-anchor="middle" x="674.5674" y="-472.1" font-family="Times,serif" font-size="14.00" fill="#000000">ProofOfExistence</text>
<polyline fill="none" stroke="#000000" points="369.5105,-463.9 979.6243,-463.9 "/>
<text text-anchor="start" x="377.5105" y="-447.3" font-family="Times,serif" font-size="14.00" fill="#000000">Public:</text>
<text text-anchor="start" x="377.5105" y="-430.5" font-family="Times,serif" font-size="14.00" fill="#000000">   DataMap: mapping(uint256=&gt;Data)</text>
<text text-anchor="start" x="377.5105" y="-413.7" font-family="Times,serif" font-size="14.00" fill="#000000">   dataCount: uint256</text>
<polyline fill="none" stroke="#000000" points="369.5105,-405.5 979.6243,-405.5 "/>
<text text-anchor="start" x="377.5105" y="-388.9" font-family="Times,serif" font-size="14.00" fill="#000000">External:</text>
<text text-anchor="start" x="377.5105" y="-372.1" font-family="Times,serif" font-size="14.00" fill="#000000">    addIPFSHash(description: string, hashStr: string, tags: string)</text>
<text text-anchor="start" x="377.5105" y="-355.3" font-family="Times,serif" font-size="14.00" fill="#000000">    getData(DataMapIndex: uint256): (description: string, hashStr: string, tags: string, timeStamp: uint256)</text>
<text text-anchor="start" x="377.5105" y="-338.5" font-family="Times,serif" font-size="14.00" fill="#000000">Public:</text>
<text text-anchor="start" x="377.5105" y="-321.7" font-family="Times,serif" font-size="14.00" fill="#000000">    &lt;&lt;event&gt;&gt; LogAddIPFSHash(description: string, hashStr: string, tags: string, timeStamp: uint256)</text>
<text text-anchor="start" x="377.5105" y="-304.9" font-family="Times,serif" font-size="14.00" fill="#000000">    constructor(_owner: address)</text>
</g>
<!-- 2&#45;&gt;3 -->
<g id="edge4" class="edge">
<title>2-&gt;3</title>
<path fill="none" stroke="#000000" stroke-dasharray="5,2" d="M425.876,-242.9325C452.6825,-259.076 479.9425,-275.4925 506.1113,-291.252"/>
<polygon fill="#000000" stroke="#000000" points="504.5697,-294.4092 514.9419,-296.5699 508.181,-288.4127 504.5697,-294.4092"/>
</g>
<!-- 3&#45;&gt;0 -->
<g id="edge5" class="edge">
<title>3-&gt;0</title>
<path fill="none" stroke="#000000" d="M539.1562,-488.8053C501.0076,-515.8805 459.8216,-545.1115 422.7659,-571.411"/>
<polygon fill="none" stroke="#000000" points="416.5554,-562.943 398.1679,-588.8689 428.7097,-580.0682 416.5554,-562.943"/>
</g>
<!-- 4 -->
<g id="node6" class="node">
<title>4</title>
<polygon fill="#f2f2f2" stroke="#000000" points="495.871,-542.5 495.871,-768.1 853.2638,-768.1 853.2638,-542.5 495.871,-542.5"/>
<text text-anchor="middle" x="674.5674" y="-751.5" font-family="Times,serif" font-size="14.00" fill="#000000">&lt;&lt;Library&gt;&gt;</text>
<text text-anchor="middle" x="674.5674" y="-734.7" font-family="Times,serif" font-size="14.00" fill="#000000">SafeMath</text>
<polyline fill="none" stroke="#000000" points="495.871,-726.5 853.2638,-726.5 "/>
<text text-anchor="middle" x="674.5674" y="-709.9" font-family="Times,serif" font-size="14.00" fill="#000000"> </text>
<polyline fill="none" stroke="#000000" points="495.871,-701.7 853.2638,-701.7 "/>
<text text-anchor="start" x="503.871" y="-685.1" font-family="Times,serif" font-size="14.00" fill="#000000">Internal:</text>
<text text-anchor="start" x="503.871" y="-668.3" font-family="Times,serif" font-size="14.00" fill="#000000">    add(a: uint256, b: uint256): uint256</text>
<text text-anchor="start" x="503.871" y="-651.5" font-family="Times,serif" font-size="14.00" fill="#000000">    sub(a: uint256, b: uint256): uint256</text>
<text text-anchor="start" x="503.871" y="-634.7" font-family="Times,serif" font-size="14.00" fill="#000000">    sub(a: uint256, b: uint256, errorMessage: string): uint256</text>
<text text-anchor="start" x="503.871" y="-617.9" font-family="Times,serif" font-size="14.00" fill="#000000">    mul(a: uint256, b: uint256): uint256</text>
<text text-anchor="start" x="503.871" y="-601.1" font-family="Times,serif" font-size="14.00" fill="#000000">    div(a: uint256, b: uint256): uint256</text>
<text text-anchor="start" x="503.871" y="-584.3" font-family="Times,serif" font-size="14.00" fill="#000000">    div(a: uint256, b: uint256, errorMessage: string): uint256</text>
<text text-anchor="start" x="503.871" y="-567.5" font-family="Times,serif" font-size="14.00" fill="#000000">    mod(a: uint256, b: uint256): uint256</text>
<text text-anchor="start" x="503.871" y="-550.7" font-family="Times,serif" font-size="14.00" fill="#000000">    mod(a: uint256, b: uint256, errorMessage: string): uint256</text>
</g>
<!-- 3&#45;&gt;4 -->
<g id="edge6" class="edge">
<title>3-&gt;4</title>
<path fill="none" stroke="#000000" stroke-dasharray="5,2" d="M674.5674,-488.9914C674.5674,-502.8905 674.5674,-517.3543 674.5674,-531.6952"/>
<polygon fill="#000000" stroke="#000000" points="671.0675,-532.1061 674.5674,-542.1061 678.0675,-532.1061 671.0675,-532.1061"/>
</g>
<!-- 3struct0 -->
<g id="node5" class="node">
<title>3struct0</title>
<polygon fill="#f2f2f2" stroke="#000000" points="611.1491,-63.3 611.1491,-180.1 737.9857,-180.1 737.9857,-63.3 611.1491,-63.3"/>
<text text-anchor="middle" x="674.5674" y="-163.5" font-family="Times,serif" font-size="14.00" fill="#000000">&lt;&lt;struct&gt;&gt;</text>
<text text-anchor="middle" x="674.5674" y="-146.7" font-family="Times,serif" font-size="14.00" fill="#000000">Data</text>
<polyline fill="none" stroke="#000000" points="611.1491,-138.5 737.9857,-138.5 "/>
<text text-anchor="start" x="619.1491" y="-121.9" font-family="Times,serif" font-size="14.00" fill="#000000">description: string</text>
<text text-anchor="start" x="619.1491" y="-105.1" font-family="Times,serif" font-size="14.00" fill="#000000">hashStr: string</text>
<text text-anchor="start" x="619.1491" y="-88.3" font-family="Times,serif" font-size="14.00" fill="#000000">tags: string</text>
<text text-anchor="start" x="619.1491" y="-71.5" font-family="Times,serif" font-size="14.00" fill="#000000">timeStamp: uint256</text>
</g>
<!-- 3struct0&#45;&gt;3 -->
<g id="edge1" class="edge">
<title>3struct0-&gt;3</title>
<path fill="none" stroke="#000000" d="M674.5674,-180.1693C674.5674,-210.5123 674.5674,-248.5724 674.5674,-284.0694"/>
<polygon fill="#000000" stroke="#000000" points="674.5675,-284.5014 678.5674,-290.5014 674.5674,-296.5014 670.5674,-290.5013 674.5675,-284.5014"/>
</g>
</g>
</svg>